<?xml version="1.0" encoding="UTF-8" standalone="no"?>
<!DOCTYPE svg PUBLIC "-//W3C//DTD SVG 1.1//EN" "http://www.w3.org/Graphics/SVG/1.1/DTD/svg11.dtd">
<svg width="100%" height="100%" viewBox="0 0 352 471" version="1.1" xmlns="http://www.w3.org/2000/svg" xmlns:xlink="http://www.w3.org/1999/xlink" xml:space="preserve" xmlns:serif="http://www.serif.com/" style="fill-rule:evenodd;clip-rule:evenodd;stroke-linejoin:round;stroke-miterlimit:2;">
    <g transform="matrix(1,0,0,1,-194.8,-154.642)">
        <g transform="matrix(4.16667,0,0,4.16667,0,0)">
            <path d="M126.1,45.209C121.873,42.91 117.886,41.099 112.451,39.771L112.451,50.879C117.286,51.967 121.873,53.66 126.1,55.59L126.1,45.209Z" style="fill-rule:nonzero;"/>
        </g>
        <g transform="matrix(4.16667,0,0,4.16667,0,0)">
            <path d="M107.622,81.559C106.292,81.559 105.206,82.645 105.206,84.093L104.479,106.8L110.882,106.8L110.033,84.093C110.033,82.645 109.073,81.559 107.622,81.559Z" style="fill-rule:nonzero;"/>
        </g>
        <g transform="matrix(4.16667,0,0,4.16667,0,0)">
            <path d="M113.298,144.112C106.533,144.112 101.705,142.543 95.544,139.412C88.9,136.026 81.535,133.125 72.113,133.125C63.297,133.125 53.877,136.271 46.752,146.895C55.325,141.581 63.297,139.89 69.938,139.89C77.065,139.89 82.503,141.704 88.054,144.598C94.337,147.859 99.77,150.153 107.622,150.153C115.23,150.153 123.805,147.259 131.172,137.599C125.255,142.543 118.976,144.112 113.298,144.112Z" style="fill-rule:nonzero;"/>
        </g>
        <g transform="matrix(4.16667,0,0,4.16667,0,0)">
            <path d="M74.77,84.093C74.77,82.645 75.858,81.559 77.187,81.559C78.517,81.559 79.601,82.645 79.601,84.093L80.449,106.8L74.043,106.8L74.77,84.093ZM75.736,129.385C81.773,129.385 88.78,131.072 96.631,135.424L96.631,112.963L93.37,108.848L93.37,77.691L99.77,67.788L97.113,77.327C98.925,77.092 100.737,76.97 102.67,76.97C108.951,76.97 114.745,78.054 119.699,79.99L126.1,74.071L126.1,58.009C121.873,56.074 117.286,54.503 112.451,53.298C109.552,52.57 106.413,52.09 103.274,51.729L103.274,37.837C99.891,37.354 96.389,37.114 92.767,37.114C89.383,37.114 86.002,37.354 82.741,37.718L82.741,50.879C79.601,51.245 76.582,51.848 73.684,52.57L73.684,39.531C68.489,40.98 63.539,43.032 59.07,45.568L59.07,72.624L65.228,78.539L63.418,108.969L58.465,113.923L58.465,131.554L60.158,133.366C64.263,131.197 69.455,129.385 75.736,129.385Z" style="fill-rule:nonzero;"/>
        </g>
    </g>
</svg>
